<svg version="1.1" id="Слой_1" xmlns="http://www.w3.org/2000/svg" x="0" y="0" viewBox="0 0 130 35" xml:space="preserve"><style>.st0{fill:#fff}</style><switch><g><path class="st0" d="M22.2 8.3c1.5 5.4 2.3 10.5 2.3 15.2 0 .6-.2 1.5-.5 2.8-2.2 4.8-5.3 7.2-9.5 7.2-2.2 0-4.3-1-6.3-3C5.4 27.8 4 21.6 4 11.7V11h2.4c.9 0 2.2 0 4.1-.1-.3 1.4-.5 3.8-.6 7.3 0 5.3 1.5 8 4.6 8 .2-.1.6-.1 1.4-.2 1.5-.9 2.3-2.3 2.3-4.2v-1.3c0-2.2-.9-5.7-2.7-10.4 2.5-.5 4.8-1.1 6.7-1.8zm9.1 4.7h.3c1.7 3.2 3.3 6.6 4.7 10h.2c-.2-2-.5-4.8-1-8.4v-.1c3.6-.3 5.8-.5 6.5-.5.4 0 .6 1.6.6 4.7v3.5c0 3.7-.1 7.1-.2 10.3l-6.4.7c-.4-1.6-1.6-4.9-3.8-9.8h-.3v.1c0 1.1.4 3.9 1.3 8.5-3.1.3-4.8.5-5.2.5-1-3.8-2-9.2-2.9-16.1.2-.2 2.3-1.4 6.2-3.4zm19.9-.7c-.3 3.7-.1 10.3.7 20l-5.1 1.1c0-.1-.1-.4-.4-.9-.8-3.1-1.8-9.5-2.8-19l7.6-1.2zm1.3 6.8c.8-5.6 3.6-8.7 8.6-9.3h.3c1.6-.2 3.3-.1 5.1.2-1.5 2.7-2.1 4.6-2 5.7v.1c-.8-.2-1.6-.3-2.3-.3-.6.1-1 .2-1.4.4-2.5 1.7-3.6 4-3.3 6.9.2.9.5 1.6.8 2.1.9 1.3 2.2 1.9 3.9 1.7l5-1.6h.1c-.5 2.2-.6 4.4-.4 6.4l.2.9c-.6.3-1.5.6-2.7.7h-.2c-1.8.2-3.5-.1-5.1-.8-3.8-2.2-6-5.5-6.6-9.9-.1-1.3-.1-2.4 0-3.2zm16.4-1.2c2.4-3.5 5.3-5.3 8.9-5.3H79c1.4 0 2.8.4 4.4 1.2 3.5 2.5 5.3 5.7 5.3 9.7v.5c0 1-.2 2.1-.6 3.3-2.1 3.8-4.9 5.7-8.6 5.7h-.6c-1.9 0-3.6-.5-5.2-1.5-3.7-2.8-5.6-6-5.6-9.8 0-1 .2-2.3.8-3.8zm5.6 3.9v.8c.3 2.9 1.5 4.3 3.5 4.3h.3c2.4-.4 3.5-1.5 3.5-3.1l-.1-1.2c-1.2-2.7-2.7-4-4.4-4-1.6 0-2.5 1.1-2.8 3.2zM93.9 8.5c2.4 0 4.6.3 6.6.9 5.9 2.1 8.9 5.6 8.9 10.5v1c0 .9-.2 2-.5 3.2-2.5 6.1-6.4 9.1-11.9 9.1-.5 0-2.2-.1-5.1-.2l-.2-.1c0-2.4-.8-10.4-2.4-23.8-.1-.3 1.4-.5 4.6-.6zm1.9 6.6c.6 5.7.9 8.9.9 9.4 0 .8.4 1.3 1.1 1.3h.5c.4 0 .9-.1 1.5-.2 1.5-.8 2.3-2.1 2.3-3.9 0-.6 0-1.1-.1-1.4-.9-3.6-2.6-5.5-4.9-5.5-.6.1-1.1.2-1.3.3zm24.4-4.3l1.4-.2c.3 2.1.5 3.8.7 5l.1.6c-2.3.2-3.9.4-4.7.5l-1.6.3c-.2 0-.4.1-.5.2.1.6.3 1.3.5 2.1l.1.5.2.3c1.7-.5 2.8-1 3.5-1.4.8 2.9 1.2 4.4 1.3 4.7-1.4.6-2.7 1-3.7 1.1l-.5.1-.2.2.9 2.7c2.9-.8 5.2-1.4 6.9-1.9.7 3 1.2 5.2 1.4 6.7-2.2.4-6.6.7-13.3.9.1-2.1-.1-4.7-.6-8-.6-3.6-1.4-7.2-2.4-10.9 3.8-1.8 7.3-2.9 10.5-3.5z"/><circle class="st0" cx="47.1" cy="5.4" r="3.4"/></g></switch></svg>