<svg xmlns="http://www.w3.org/2000/svg" width="42" height="42"><path d="M19.293 4.045c.637 1.333 1.275 2.665 1.907 3.998l3.049 6.386c.23.486.446.987.695 1.458.498.937 1.208.952 2.037 1.077 2.128.326 4.261.646 6.39.972 1.687.255 3.374.53 5.061.771l.086.015-.848-3.351a1847.343 1847.343 0 01-3.077 3.15c-1.625 1.669-3.255 3.332-4.88 5-.36.366-.724.726-1.078 1.102-.125.135-.034-.08-.312.416-.278.5-.278 1.002-.192 1.558.01.05.02.105.024.155.043.255.087.516.125.771.364 2.23.733 4.454 1.098 6.683.287 1.758.56 3.521.867 5.274l.015.086c.939-.757 1.878-1.508 2.818-2.265-1.28-.7-2.56-1.407-3.84-2.108-2.003-1.103-4.011-2.205-6.015-3.307-.436-.24-.872-.485-1.313-.72-.666-.352-1.304-.347-1.96.004-.049.025-.097.055-.144.08-.23.125-.46.25-.69.381-1.918 1.052-3.835 2.099-5.748 3.15-1.514.832-3.034 1.644-4.544 2.49-.024.015-.048.025-.076.04.94.757 1.879 1.508 2.818 2.265l.733-4.454 1.15-7.003c.082-.505.169-1.011.25-1.517.077-.481.091-.862-.096-1.318a1.935 1.935 0 00-.407-.656l-.115-.12c-.187-.19-.374-.38-.556-.576a3506.076 3506.076 0 01-4.63-4.769c-1.208-1.242-2.407-2.5-3.629-3.732a.75.75 0 00-.062-.06l-.849 3.351c1.424-.215 2.852-.436 4.276-.651l6.705-1.022c.46-.07.94-.105 1.395-.21.48-.11.94-.506 1.165-.952.029-.06.058-.115.086-.175.12-.25.24-.501.365-.757.977-2.028 1.95-4.057 2.928-6.086.762-1.583 1.53-3.156 2.282-4.744.014-.025.024-.05.038-.08.23-.48.336-1.012.192-1.543-.125-.466-.465-.966-.882-1.197-.446-.245-.983-.37-1.476-.2-.46.155-.92.456-1.146.921-.642 1.338-1.29 2.68-1.932 4.018-1.02 2.124-2.046 4.253-3.067 6.377l-.705 1.467c.384-.305.762-.616 1.146-.921-1.395.21-2.79.425-4.185.636-2.224.34-4.448.676-6.667 1.017-.508.075-1.016.155-1.524.23-.638.095-1.18.792-1.338 1.398-.182.686.005 1.447.494 1.948l3.058 3.151 4.832 4.974c.369.38.743.762 1.112 1.147-.163-.65-.331-1.297-.494-1.948l-.719 4.383-1.15 6.988c-.087.536-.178 1.072-.264 1.613-.057.355-.091.71 0 1.067.11.42.36.776.685 1.042.624.505 1.434.535 2.129.155 1.265-.691 2.53-1.388 3.796-2.079 2.013-1.102 4.026-2.21 6.044-3.311.46-.25.92-.506 1.38-.757h-1.936l3.796 2.09c2 1.096 3.998 2.198 6.001 3.295.46.256.92.506 1.38.762.696.38 1.501.35 2.129-.155.268-.22.455-.471.59-.802.177-.44.172-.831.095-1.302l-.719-4.383-1.15-6.988c-.086-.536-.177-1.072-.263-1.613-.163.65-.331 1.297-.494 1.948l3.058-3.135c1.625-1.664 3.25-3.332 4.87-4.995.369-.38.743-.761 1.112-1.142.489-.5.67-1.267.493-1.948-.158-.611-.7-1.303-1.337-1.398-1.4-.21-2.804-.426-4.203-.636-2.23-.34-4.463-.676-6.692-1.017-.508-.075-1.016-.155-1.524-.23.383.305.762.616 1.146.921l-1.918-4.017L23.3 3.499c-.235-.49-.47-.977-.7-1.468-.206-.43-.71-.796-1.146-.921-.46-.13-1.068-.07-1.476.2-.92.616-1.17 1.733-.685 2.735z" fill="#fcaa23"/></svg>