<svg xmlns="http://www.w3.org/2000/svg" width="32" height="32"><g fill="#4052f2"><path d="M27.365 10.12c-.412.163-.62.653-.467 1.092.516 1.47.778 3.028.778 4.627 0 7.335-5.598 13.302-12.478 13.302S2.72 23.174 2.72 15.839 8.318 2.537 15.198 2.537c2.642 0 5.167.872 7.3 2.522a.766.766 0 001.113-.19.886.886 0 00-.177-1.185C21.026 1.823 18.178.839 15.198.839c-7.759 0-14.07 6.729-14.07 15s6.311 15 14.07 15 14.07-6.729 14.07-15c0-1.803-.295-3.56-.878-5.222-.154-.44-.613-.661-1.025-.498z"/><path d="M30.973 2.288l-.945-1.002a.506.506 0 00-.733-.017L14.136 16.05l-5.304-5.157a.518.518 0 00-.404-.147.536.536 0 00-.372.215l-2.83 3.815a.6.6 0 00.048.764l8.496 8.683a.502.502 0 00.366.158h.032a.504.504 0 00.377-.203l16.46-21.125a.6.6 0 00-.032-.764z"/></g></svg>